#Unknown ASF file
:ROOT_YZX
:FOOT_3DOF
:FULLY-SPECIFIED
:DEGREES
907
root -6.71556 17.7224 0.0644261 -2.25373 -168.675 -3.75369
lfemur -24.1361 -0.754767 -16.8576
ltibia 38.0208
lfoot -7.96597 0 -9.57551
ltoes -9.77695
rfemur 1.23646 -5.65339 25.1856
rtibia 53.9949
rfoot 16.6561 0 -2.61578
rtoes 7.26805
lowerback 10.8172 2.31218 0.859901
upperback 1.34146 3.07345 0.40286
thorax -4.63461 1.45351 -0.507774
lowerneck -1.15516 -14.4518 -25.3438
upperneck 9.805 -21.4222 19.7542
head 8.16227 -10.6967 8.16299
lclavicle -8.44835e-016 1.78906e-014
lhumerus -45.7553 16.8905 73.043
lradius 25.8089
lwrist -2.0184
lhand -11.7954 31.1267
lfingers 7.12502
lthumb 14.2542 60.6175
rclavicle -8.44835e-016 1.78906e-014
rhumerus -29.2302 -3.62426 -80.9413
rradius 38.0371
rwrist -1.67086
rhand -22.5676 15.9911
rfingers 7.12502
rthumb 3.86069 -13.9536
908
root -6.88075 17.6824 -0.493712 -3.55836 -169.203 -2.64539
lfemur -20.983 -1.54151 -18.4705
ltibia 39.3494
lfoot -11.1259 0 -7.49191
ltoes -12.5891
rfemur -3.03706 -7.147 22.5204
rtibia 62.8605
rfoot 18.9098 0 -7.43923
rtoes -2.32053
lowerback 11.7315 2.13778 -0.0438813
upperback 1.96219 2.6766 0.428363
thorax -4.53991 1.24848 0.0648475
lowerneck -1.39588 -14.3859 -25.3829
upperneck 9.1801 -21.114 19.7759
head 7.93753 -10.521 8.21862
lclavicle 3.3048e-015 -1.19271e-015
lhumerus -44.3546 16.7874 74.3383
lradius 25.3175
lwrist -2.34632
lhand -11.5709 29.7271
lfingers 7.12502
lthumb 14.4705 59.2025
rclavicle 3.3048e-015 -1.19271e-015
rhumerus -29.5204 -1.70477 -81.507
rradius 37.8077
rwrist -2.44627
rhand -21.8234 14.5859
rfingers 7.12502
rthumb 4.57926 -15.3446
909
root -7.04988 17.6223 -1.087 -4.94931 -170.837 -0.113509
lfemur -17.1399 -0.951331 -21.601
ltibia 39.8684
lfoot -13.9541 0 -5.83367
ltoes -13.7678
rfemur -6.28847 -7.72782 18.3841
rtibia 69.6688
rfoot 13.6125 0 -10.52
rtoes 7.30938
lowerback 11.8301 2.54112 -2.59401
upperback 2.75099 2.8141 0.200979
thorax -3.88356 1.3081 1.2535
lowerneck 0.203068 -13.581 -26.0617
upperneck 6.90873 -20.2609 21.5122
head 7.03341 -10.1841 9.21623
lclavicle -1.0871e-014 3.37934e-015
lhumerus -41.8283 18.6881 74.2556
lradius 22.6537
lwrist -6.40021
lhand -10.6543 28.5644
lfingers 7.12502
lthumb 15.3535 57.9744
rclavicle -1.0871e-014 3.37934e-015
rhumerus -30.3366 -1.71235 -81.5076
rradius 38.1893
rwrist -1.94924
rhand -22.842 14.1518
rfingers 7.12502
rthumb 3.59567 -15.7976
910
root -7.15568 17.617 -1.57704 -4.93162 -170.873 1.20752
lfemur -15.0958 -0.729611 -23.1779
ltibia 39.5859
lfoot -15.4129 0 -5.89451
ltoes -13.2394
rfemur -12.051 -8.73508 16.6495
rtibia 74.4292
rfoot 6.5861 0 -10.3689
rtoes -1.32117
lowerback 11.8897 2.13366 -3.86491
upperback 2.69088 2.1066 0.0466316
thorax -3.98841 0.970787 1.91326
lowerneck 0.54103 -13.3139 -25.9191
upperneck 6.70414 -19.9502 21.4728
head 6.8127 -10.0561 9.27056
lclavicle -3.33089e-014 7.05686e-015
lhumerus -39.8182 17.9781 75.4293
lradius 22.4838
lwrist -7.38813
lhand -10.9145 28.6612
lfingers 7.12502
lthumb 15.1029 58.0902
rclavicle -3.33089e-014 7.05686e-015
rhumerus -30.8843 -2.845 -81.7507
rradius 36.9153
rwrist -1.03873
rhand -23.9327 16.6145
rfingers 7.12502
rthumb 2.54232 -13.3501
911
root -7.26092 17.6016 -2.07406 -5.1477 -171.947 1.84961
lfemur -12.3558 0.215121 -23.8407
ltibia 38.8575
lfoot -16.9759 0 -5.62588
ltoes -13.0881
rfemur -16.8417 -8.09516 16.2362
rtibia 75.7068
rfoot 0.0417967 0 -8.86803
rtoes -3.74405
lowerback 11.7257 1.82894 -4.35204
upperback 2.68196 1.65257 0.0815457
thorax -3.89335 0.749611 2.298
lowerneck -1.70995 -13.5605 -24.7597
upperneck 9.7808 -19.8957 18.8585
head 7.71353 -9.94919 8.04547
lclavicle 8.0203e-015 -1.08089e-015
lhumerus -37.7709 18.7689 75.4552
lradius 21.4276
lwrist -9.37743
lhand -12.1095 28.8094
lfingers 7.12502
lthumb 13.9515 58.3213
rclavicle 8.0203e-015 -1.08089e-015
rhumerus -31.67 -4.17067 -82.1029
rradius 35.2367
rwrist -0.655469
rhand -24.0956 13.4359
rfingers 7.12502
rthumb 2.38502 -16.5305
912
root -7.36909 17.5923 -2.58309 -5.41803 -172.243 3.03898
lfemur -9.41118 0.686567 -25.2694
ltibia 37.587
lfoot -17.8445 0 -5.49021
ltoes -11.6708
rfemur -20.1703 -8.16841 15.2083
rtibia 73.9023
rfoot -6.7594 0 -7.31458
rtoes -5.13972
lowerback 11.4665 1.1849 -5.12596
upperback 2.6514 0.709387 -0.123687
thorax -3.71964 0.285773 2.66445
lowerneck -1.69212 -12.9755 -24.4292
upperneck 10.5571 -19.2332 18.4723
head 7.7242 -9.66738 8.00112
lclavicle -6.59095e-015 3.27995e-015
lhumerus -35.9439 18.2825 75.9439
lradius 21.5443
lwrist -9.0419
lhand -13.1115 29.1412
lfingers 7.12502
lthumb 12.9858 58.7171
rclavicle -6.59095e-015 3.27995e-015
rhumerus -32.4961 -5.52616 -82.4261
rradius 32.8434
rwrist -0.3474
rhand -25.4595 13.8891
rfingers 7.12502
rthumb 1.06777 -16.0879
913
root -7.46622 17.6421 -3.08445 -5.66754 -172.128 3.97135
lfemur -6.71452 1.02912 -26.4749
ltibia 36.0099
lfoot -18.2128 0 -5.42576
ltoes -12.3474
rfemur -22.896 -8.65707 14.6601
rtibia 69.0969
rfoot -10.4866 0 -7.0355
rtoes -9.61263
lowerback 11.6048 0.495493 -5.71421
upperback 2.48401 -0.279234 -0.0983831
thorax -3.88369 -0.186059 3.16816
lowerneck -2.31046 -12.7988 -24.2552
upperneck 11.7373 -19.0058 17.8658
head 8.07277 -9.57264 7.7719
lclavicle -1.51573e-015 1.86858e-014
lhumerus -34.1473 16.608 77.2713
lradius 22.7455
lwrist -8.05503
lhand -12.5746 32.0925
lfingers 7.12502
lthumb 13.5032 61.6347
rclavicle -1.51573e-015 1.86858e-014
rhumerus -33.6832 -6.31061 -82.2192
rradius 31.5251
rwrist -0.651081
rhand -24.1422 13.8663
rfingers 7.12502
rthumb 2.34005 -16.1006
914
root -7.50758 17.6614 -3.55775 -5.20942 -172.402 4.25345
lfemur -3.75317 0.946043 -26.6897
ltibia 33.7177
lfoot -18.8635 0 -4.94539
ltoes -13.4446
rfemur -26.1165 -8.3022 15.6229
rtibia 62.8159
rfoot -13.6486 0 -8.21766
rtoes -11.7796
lowerback 11.5517 -0.0730872 -6.32359
upperback 1.8714 -1.05173 0.263601
thorax -4.40319 -0.504196 4.01036
lowerneck -1.62772 -12.0802 -23.7879
upperneck 11.8989 -18.2377 17.5182
head 7.74284 -9.27275 7.77413
lclavicle -1.2424e-014 -2.38542e-015
lhumerus -32.6222 14.6587 78.4537
lradius 23.7319
lwrist -5.3743
lhand -13.6634 31.6332
lfingers 7.12502
lthumb 12.4536 61.2421
rclavicle -1.2424e-014 -2.38542e-015
rhumerus -35.7724 -6.17364 -81.8401
rradius 30.6844
rwrist 0.89544
rhand -22.1006 12.7543
rfingers 7.12502
rthumb 4.31164 -17.1818
915
root -7.55471 17.7376 -4.04127 -4.67098 -172.581 4.82841
lfemur -1.36546 1.31467 -27.2666
ltibia 31.073
lfoot -18.9499 0 -4.85939
ltoes -14.0725
rfemur -27.9128 -8.18761 16.0027
rtibia 54.2288
rfoot -13.1462 0 -8.86188
rtoes -10.1894
lowerback 11.1957 -0.571705 -7.02065
upperback 1.75203 -1.74721 0.543055
thorax -4.22063 -0.833173 4.79135
lowerneck -2.63855 -12.041 -23.1823
upperneck 12.3946 -18.0109 17.1307
head 7.93134 -9.11166 7.52728
lclavicle -2.06239e-015 -1.70955e-014
lhumerus -30.7174 11.789 79.8935
lradius 26.2033
lwrist -2.75134
lhand -13.3995 30.7825
lfingers 7.12502
lthumb 12.7081 60.3758
rclavicle -2.06239e-015 -1.70955e-014
rhumerus -37.0088 -5.70025 -81.4773
rradius 29.293
rwrist 2.32098
rhand -22.9004 17.4444
rfingers 7.12502
rthumb 3.53928 -12.506
916
root -7.60044 17.8056 -4.54112 -4.42817 -172.498 5.75865
lfemur 2.36277 2.2401 -28.0852
ltibia 26.6366
lfoot -17.9525 0 -5.35815
ltoes -16.3073
rfemur -28.3646 -8.62405 15.8146
rtibia 44.3778
rfoot -9.86562 0 -8.34646
rtoes -5.41474
lowerback 10.9732 -1.06714 -7.90992
upperback 1.50907 -2.48414 0.575493
thorax -4.21532 -1.17018 5.425
lowerneck -2.0664 -11.6607 -23.0101
upperneck 12.4243 -17.8061 17.4969
head 7.81105 -9.0552 7.70671
lclavicle -2.33572e-015 -1.59028e-015
lhumerus -29.1717 9.03465 80.6591
lradius 28.5363
lwrist -0.789933
lhand -14.0811 29.795
lfingers 7.12502
lthumb 12.0509 59.428
rclavicle -2.33572e-015 -1.59028e-015
rhumerus -38.6635 -5.77066 -81.0455
rradius 27.9911
rwrist 2.55717
rhand -20.1607 14.207
rfingers 7.12502
rthumb 6.18465 -15.6827
